<mxfile host="app.diagrams.net" agent="Mozilla/5.0 (Windows NT 10.0; Win64; x64) AppleWebKit/537.36 (KHTML, like Gecko) Chrome/137.0.0.0 Safari/537.36 Edg/137.0.0.0" version="27.1.6">
  <diagram name="Flowchart" id="0">
    <mxGraphModel dx="1281" dy="616" grid="1" gridSize="10" guides="1" tooltips="1" connect="1" arrows="1" fold="1" page="1" pageScale="1" pageWidth="827" pageHeight="1169" math="0" shadow="0">
      <root>
        <mxCell id="0" />
        <mxCell id="1" parent="0" />
        <mxCell id="start" value="Start" style="ellipse;whiteSpace=wrap;html=1;" parent="1" vertex="1">
          <mxGeometry x="160" y="20" width="80" height="40" as="geometry" />
        </mxCell>
        <mxCell id="setup" value="Setup" style="rounded=1;whiteSpace=wrap;html=1;" parent="1" vertex="1">
          <mxGeometry x="140" y="80" width="120" height="60" as="geometry" />
        </mxCell>
        <mxCell id="wifi" value="Connect WiFi" style="rounded=1;whiteSpace=wrap;html=1;" parent="1" vertex="1">
          <mxGeometry x="140" y="160" width="120" height="60" as="geometry" />
        </mxCell>
        <mxCell id="checkwifi" value="WiFi?" style="rhombus;whiteSpace=wrap;html=1;" parent="1" vertex="1">
          <mxGeometry x="160" y="240" width="80" height="60" as="geometry" />
        </mxCell>
        <mxCell id="synctime" value="Sync NTP" style="rounded=1;whiteSpace=wrap;html=1;" parent="1" vertex="1">
          <mxGeometry x="40" y="320" width="100" height="60" as="geometry" />
        </mxCell>
        <mxCell id="wifiFail" value="WiFi Failed" style="rounded=1;whiteSpace=wrap;html=1;" parent="1" vertex="1">
          <mxGeometry x="240" y="320" width="100" height="60" as="geometry" />
        </mxCell>
        <mxCell id="loop" value="Loop" style="ellipse;whiteSpace=wrap;html=1;" parent="1" vertex="1">
          <mxGeometry x="160" y="420" width="80" height="40" as="geometry" />
        </mxCell>
        <mxCell id="temperature" value="Read Temp" style="rounded=1;whiteSpace=wrap;html=1;" parent="1" vertex="1">
          <mxGeometry x="140" y="480" width="120" height="60" as="geometry" />
        </mxCell>
        <mxCell id="checkwifi2" value="WiFi?" style="rhombus;whiteSpace=wrap;html=1;" parent="1" vertex="1">
          <mxGeometry x="160" y="560" width="80" height="60" as="geometry" />
        </mxCell>
        <mxCell id="displayNTP" value="Display NTP" style="rounded=1;whiteSpace=wrap;html=1;" parent="1" vertex="1">
          <mxGeometry x="40" y="640" width="100" height="60" as="geometry" />
        </mxCell>
        <mxCell id="displayRTC" value="Display RTC" style="rounded=1;whiteSpace=wrap;html=1;" parent="1" vertex="1">
          <mxGeometry x="240" y="640" width="100" height="60" as="geometry" />
        </mxCell>
        <mxCell id="buzzerOn" value="Buzzer+LED ON" style="rounded=1;whiteSpace=wrap;html=1;" parent="1" vertex="1">
          <mxGeometry x="140" y="720" width="120" height="60" as="geometry" />
        </mxCell>
        <mxCell id="buzzerOff" value="Buzzer+LED OFF" style="rounded=1;whiteSpace=wrap;html=1;" parent="1" vertex="1">
          <mxGeometry x="140" y="800" width="120" height="60" as="geometry" />
        </mxCell>
        <mxCell id="edge1" style="endArrow=block;html=1;" parent="1" source="start" target="setup" edge="1">
          <mxGeometry relative="1" as="geometry" />
        </mxCell>
        <mxCell id="edge2" style="endArrow=block;html=1;" parent="1" source="setup" target="wifi" edge="1">
          <mxGeometry relative="1" as="geometry" />
        </mxCell>
        <mxCell id="edge3" style="endArrow=block;html=1;" parent="1" source="wifi" target="checkwifi" edge="1">
          <mxGeometry relative="1" as="geometry" />
        </mxCell>
        <mxCell id="edge4" style="endArrow=block;html=1;" parent="1" source="checkwifi" target="synctime" edge="1">
          <mxGeometry relative="1" as="geometry" />
        </mxCell>
        <mxCell id="edge5" style="endArrow=block;html=1;" parent="1" source="checkwifi" target="wifiFail" edge="1">
          <mxGeometry relative="1" as="geometry" />
        </mxCell>
        <mxCell id="edge6" style="endArrow=block;html=1;" parent="1" source="synctime" target="loop" edge="1">
          <mxGeometry relative="1" as="geometry" />
        </mxCell>
        <mxCell id="edge7" style="endArrow=block;html=1;" parent="1" source="wifiFail" target="loop" edge="1">
          <mxGeometry relative="1" as="geometry" />
        </mxCell>
        <mxCell id="edge8" style="endArrow=block;html=1;" parent="1" source="loop" target="temperature" edge="1">
          <mxGeometry relative="1" as="geometry" />
        </mxCell>
        <mxCell id="edge9" style="endArrow=block;html=1;" parent="1" source="temperature" target="checkwifi2" edge="1">
          <mxGeometry relative="1" as="geometry" />
        </mxCell>
        <mxCell id="edge10" style="endArrow=block;html=1;" parent="1" source="checkwifi2" target="displayNTP" edge="1">
          <mxGeometry relative="1" as="geometry" />
        </mxCell>
        <mxCell id="edge11" style="endArrow=block;html=1;" parent="1" source="checkwifi2" target="displayRTC" edge="1">
          <mxGeometry relative="1" as="geometry" />
        </mxCell>
        <mxCell id="edge12" style="endArrow=block;html=1;" parent="1" source="displayNTP" target="buzzerOn" edge="1">
          <mxGeometry relative="1" as="geometry" />
        </mxCell>
        <mxCell id="edge13" style="endArrow=block;html=1;" parent="1" source="displayRTC" target="buzzerOn" edge="1">
          <mxGeometry relative="1" as="geometry" />
        </mxCell>
        <mxCell id="edge14" style="endArrow=block;html=1;" parent="1" source="buzzerOn" target="buzzerOff" edge="1">
          <mxGeometry relative="1" as="geometry" />
        </mxCell>
        <mxCell id="edge15" style="endArrow=block;html=1;" parent="1" source="buzzerOff" target="loop" edge="1">
          <mxGeometry relative="1" as="geometry">
            <Array as="points">
              <mxPoint x="400" y="830" />
              <mxPoint x="400" y="440" />
            </Array>
          </mxGeometry>
        </mxCell>
      </root>
    </mxGraphModel>
  </diagram>
</mxfile>
